<?xml version="1.0" encoding="UTF-8"?>
<svg id="Capa_2" data-name="Capa 2" xmlns="http://www.w3.org/2000/svg" viewBox="0 0 1368.58 819.49">
  <defs>
    <style>
      .cls-1 {
        fill: #3f3d56;
      }

      .cls-1, .cls-2, .cls-3, .cls-4, .cls-5, .cls-6, .cls-7, .cls-8, .cls-9 {
        stroke-width: 0px;
      }

      .cls-2 {
        fill: #f2f2f2;
      }

      .cls-3 {
        fill: #2f2e41;
      }

      .cls-4 {
        fill: #3b8ff3;
      }

      .cls-5 {
        fill: #e6e6e6;
      }

      .cls-6 {
        fill: #000;
        isolation: isolate;
        opacity: .1;
      }

      .cls-7 {
        fill: #575a89;
      }

      .cls-8 {
        fill: #ffb9b9;
      }

      .cls-9 {
        fill: #ff6584;
      }
    </style>
  </defs>
  <g id="Capa_2-2" data-name="Capa 2">
    <g id="Capa_2-2" data-name="Capa 2-2">
      <path class="cls-2" d="M1125.6,93.85c-157.26-121.22-376.04-126.17-535.65-8.06-84.37,62.43-149.79,157.95-137.89,303.39,4.21,51.44,15.91,93.65,32.99,128.19,69.18,140.06,353.31,134.66,369.09,134.64,10.22-.01,20.45.22,30.67.69,35.81,1.64,71.43,6.15,106.52,13.47,50.03,10.43,113.72,15.67,170.63-4.08,9.67-3.34,19.06-7.43,28.1-12.22,31.27-16.62,66.28-32.5,86.75-71.92,15.38-29.58,26.59-66.68,31.98-112.89,19.63-168.27-78.45-290.47-183.2-371.21h.01Z"/>
      <polygon class="cls-4" points="874.15 278.42 869.88 276.81 737.25 280.26 731.74 277.73 734.04 293.35 839.39 282.13 874.15 278.42"/>
      <ellipse class="cls-1" cx="885.51" cy="654.72" rx="449.68" ry="42.21"/>
      <ellipse class="cls-6" cx="863.54" cy="654.72" rx="418.24" ry="19.81"/>
      <polygon class="cls-7" points="1094.91 89.39 1094.91 136.75 1033.26 136.75 1033.26 653.21 1161.93 653.21 1161.93 156.41 1161.93 136.75 1161.93 89.39 1094.91 89.39"/>
      <polygon class="cls-7" points="755.37 407.49 755.37 326.18 676.74 326.18 676.74 407.49 647.25 407.49 647.25 654.1 783.96 654.1 783.96 407.49 755.37 407.49"/>
      <rect class="cls-1" x="662.44" y="539.73" width="106.33" height="115.27"/>
      <rect class="cls-6" x="662.44" y="539.73" width="16.98" height="115.27"/>
      <polygon class="cls-1" points="987.69 63.48 987.69 91.18 830.43 91.18 830.43 63.48 783.96 63.48 783.96 655 1033.26 655 1033.26 63.48 987.69 63.48"/>
      <rect class="cls-9" x="691.04" y="552.24" width="50.04" height="21.44"/>
      <rect class="cls-6" x="673.17" y="426.25" width="85.78" height="35.74"/>
      <rect class="cls-6" x="1048.45" y="177.85" width="85.78" height="35.74"/>
      <rect class="cls-6" x="1048.45" y="253.8" width="85.78" height="35.74"/>
      <rect class="cls-6" x="1048.45" y="329.75" width="85.78" height="35.74"/>
      <rect class="cls-6" x="1048.45" y="405.7" width="85.78" height="35.74"/>
      <rect class="cls-6" x="1048.45" y="481.65" width="85.78" height="35.74"/>
      <rect class="cls-6" x="1048.45" y="557.6" width="85.78" height="35.74"/>
      <polygon class="cls-1" points="1191.41 339.58 1191.41 242.18 1128.87 242.18 1128.87 339.58 1106.53 339.58 1106.53 655 1212.86 655 1212.86 339.58 1191.41 339.58"/>
      <rect class="cls-6" x="1128.87" y="242.18" width="19.66" height="97.39"/>
      <rect class="cls-6" x="1106.53" y="339.58" width="19.66" height="315.42"/>
      <rect class="cls-6" x="1160.14" y="497.73" width="52.72" height="31.27"/>
      <rect class="cls-9" x="1161.93" y="451.27" width="50.04" height="21.44"/>
      <path class="cls-4" d="M1368.58,472.92c0,79.61-47.32,107.4-105.7,107.4s-105.7-27.8-105.7-107.4,105.7-180.88,105.7-180.88c0,0,105.7,101.27,105.7,180.88Z"/>
      <polygon class="cls-1" points="1259.03 568.14 1260.11 501.52 1305.16 419.1 1260.28 491.07 1260.77 461.11 1291.82 401.48 1260.9 453.19 1260.9 453.19 1261.77 399.31 1295.02 351.83 1261.91 390.84 1262.46 292.04 1259.02 422.83 1259.3 417.43 1225.5 365.69 1258.76 427.79 1255.61 487.96 1255.52 486.36 1216.55 431.91 1255.4 492.01 1255 499.53 1254.93 499.64 1254.97 500.26 1246.97 652.93 1257.65 652.93 1258.93 574.07 1297.69 514.12 1259.03 568.14"/>
      <ellipse class="cls-1" cx="252.27" cy="785.37" rx="252.27" ry="34.12"/>
      <ellipse class="cls-6" cx="252.27" cy="785.37" rx="197.43" ry="26.71"/>
      <circle class="cls-3" cx="216.6" cy="245.94" r="53.59"/>
      <circle class="cls-8" cx="231.23" cy="263.92" r="29.99"/>
      <path class="cls-8" d="M214.46,279.68s7.63,18.3-4.07,23.38-7.12,35.08-7.12,35.08l45.75-9.66s0-12.71-9.15-18.3,12.2-30.5,12.2-30.5h-37.62,0Z"/>
      <polygon class="cls-8" points="199.71 414.9 201.24 431.68 269.87 443.37 263.26 412.36 199.71 414.9"/>
      <path class="cls-8" d="M198.7,549.62l2.54,71.17s-12.2,28.98-2.54,82.35c9.66,53.38,2.54,68.12,2.54,68.12l34.57,4.58-2.03-19.83-8.13-17.28,3.56-98.62s15.76-36.6,16.27-43.72-1.02-58.97-1.02-58.97l-45.75,12.2h0Z"/>
      <path class="cls-6" d="M198.7,549.62l2.54,71.17s-12.2,28.98-2.54,82.35c9.66,53.38,2.54,68.12,2.54,68.12l34.57,4.58-2.03-19.83-8.13-17.28,3.56-98.62s15.76-36.6,16.27-43.72-1.02-58.97-1.02-58.97l-45.75,12.2h0Z"/>
      <path class="cls-3" d="M209.37,746.86s0-6.61-3.05-7.12-7.12-2.03-7.12,0-.51,16.27-1.53,18.3-3.05,9.66-1.53,12.71c0,0-4.58,11.69-1.02,12.71s23.89,1.02,23.89,1.02l1.02-5.59s45.24,14.23,54.9,1.53c0,0,4.58-9.15-3.56-11.18,0,0-18.3.51-24.91-7.12s-19.32-25.42-19.32-25.42c0,0-10.17,1.53-9.15,8.13v2.03h-8.64.02Z"/>
      <path class="cls-8" d="M226.66,551.14s5.08,35.59,22.88,61.51c0,0,9.15,21.35,7.63,27.96s-1.53,42.7,13.73,74.73l14.23,46.77,7.12,16.78,12.2,5.08,19.83,1.53-11.18-23.38-5.59-12.2s-10.17-20.84-10.17-39.14-6.61-61.51-6.61-61.51c0,0,0-97.61-10.68-103.71s-53.38,5.59-53.38,5.59h-.01Z"/>
      <path class="cls-3" d="M203.78,426.6l-5.08-1.02v22.88s-2.03,17.79-6.61,21.35-22.37,73.71-16.27,77.78c6.1,4.07,87.95,25.42,107.77,3.56l-13.73-66.6s1.02-45.75,0-45.75-66.09-12.2-66.09-12.2h.01Z"/>
      <path class="cls-4" d="M252.07,323.91s-25.42-17.28-50.84,5.08c0,0-9.15,37.62-10.68,46.77s-11.18,46.77-4.07,50.33,7.12-8.64,25.42-6.1,57.44,1.53,57.44-1.53-9.15-27.45-5.59-31.52,9.66-23.38,3.56-33.04-15.25-29.99-15.25-29.99h.01Z"/>
      <path class="cls-8" d="M219.03,426.6l50.84,23.89s20.33,25.93,24.91,11.18c4.58-14.74-15.25-25.42-15.25-25.42l-34.06-19.32-26.43,8.64v1.02h-.01Z"/>
      <path class="cls-6" d="M222.59,328.99s-28.98,89.47-2.54,103.71,30.5-12.71,30.5-12.71c0,0-17.79-11.18-12.2-24.91s10.68-66.09,10.68-66.09h-26.44Z"/>
      <path class="cls-4" d="M221.06,325.94s-28.98,89.47-2.54,103.71c26.43,14.23,30.5-12.71,30.5-12.71,0,0-17.79-11.18-12.2-24.91s10.68-66.09,10.68-66.09h-26.44Z"/>
      <path class="cls-3" d="M290.93,757.31s-.51-6.92-3.74-7.22-7.61-1.58-7.45.55.72,17.08-.18,19.29-2.45,10.35-.62,13.43c0,0-3.89,12.6-.08,13.39s25.1-.78,25.1-.78l.63-5.94s48.49,11.42,57.62-2.64c0,0,4.09-9.94-4.59-11.44,0,0-19.13,1.95-26.64-5.53-7.51-7.48-22.2-25.13-22.2-25.13,0,0-10.53,2.38-8.96,9.23l.16,2.13-9.05.67h0Z"/>
      <ellipse class="cls-3" cx="231.17" cy="244.53" rx="36.2" ry="19.27"/>
      <ellipse class="cls-8" cx="201.08" cy="268.98" rx="5.17" ry="7.99"/>
      <circle class="cls-3" cx="183.69" cy="192.36" r="25.38"/>
      <polygon class="cls-4" points="699.81 274.85 664.44 273.24 669.95 270.72 700.96 271.18 699.81 274.85"/>
      <polygon class="cls-4" points="558.78 278.42 563.05 276.81 695.68 280.26 701.19 277.73 698.89 293.35 593.54 282.13 558.78 278.42"/>
      <polygon class="cls-1" points="592.89 287.49 593.54 282.13 698.89 293.35 698.32 301.28 592.89 287.49"/>
      <ellipse class="cls-1" cx="663.75" cy="291.74" rx="10.91" ry="11.6"/>
      <circle class="cls-4" cx="663.75" cy="289.68" r="8.04"/>
      <polygon class="cls-4" points="733.12 274.85 768.49 273.24 762.98 270.72 731.97 271.18 733.12 274.85"/>
      <polygon class="cls-4" points="720.46 269.9 718.85 234.53 716.32 240.04 716.78 271.05 720.46 269.9"/>
      <polygon class="cls-1" points="840.04 287.49 839.39 282.13 734.04 293.35 734.61 301.28 840.04 287.49"/>
      <ellipse class="cls-1" cx="769.18" cy="291.74" rx="10.91" ry="11.6"/>
      <circle class="cls-4" cx="769.18" cy="289.68" r="8.04"/>
      <path class="cls-4" d="M736.51,270.44l-.52,3.84-.27,20.68c-.02,1.54-.21,3.06-.56,4.53-1.01,4.3-3.36,8.2-6.83,11.03-3.15,2.57-7.44,4.52-13.13,4.18-15.16-.92-16.5-13.82-16.5-13.82l.57-23.4.08-3.21.69-5.79s1.84-16.31,18.84-15.85c17,.46,17.63,17.8,17.63,17.8h0Z"/>
      <polygon class="cls-5" points="703.72 265.05 707.16 259.54 711.53 258.16 726.46 258.16 730.13 259.54 733.47 265.05 727.38 262.3 710.29 262.3 703.72 265.05"/>
      <rect class="cls-4" x="704.85" y="260.23" width="11.86" height=".63" transform="translate(269.55 875.69) rotate(-74.48)"/>
      <rect class="cls-4" x="726.99" y="256.51" width=".63" height="11.86" transform="translate(-36.96 145.2) rotate(-11.12)"/>
      <polygon class="cls-1" points="606.15 232.36 606.15 210.02 582.92 210.02 582.92 232.36 540.92 232.36 540.92 655 647.25 655 647.25 232.36 606.15 232.36"/>
      <rect class="cls-6" x="582.92" y="210.02" width="12.51" height="22.34"/>
      <rect class="cls-6" x="540.92" y="232.36" width="12.51" height="422.64"/>
      <rect class="cls-6" x="615.09" y="232.36" width="32.17" height="77.74"/>
      <rect class="cls-9" x="569.52" y="328.86" width="50.04" height="21.44"/>
      <path class="cls-4" d="M593.9,473.78c0,79.61-47.32,107.4-105.7,107.4s-105.7-27.8-105.7-107.4,105.7-180.88,105.7-180.88c0,0,105.7,101.27,105.7,180.88Z"/>
      <polygon class="cls-1" points="484.34 569.01 485.43 502.38 530.48 419.96 485.6 491.93 486.08 461.97 517.13 402.34 486.21 454.05 486.21 454.05 487.09 400.17 520.34 352.7 487.23 391.7 487.77 292.9 484.34 423.69 484.62 418.29 450.81 366.55 484.08 428.65 480.93 488.82 480.83 487.23 441.86 432.77 480.71 492.87 480.32 500.39 480.25 500.51 480.28 501.12 472.29 653.79 482.97 653.79 484.25 574.93 523.01 514.99 484.34 569.01"/>
      <rect class="cls-6" x="987.69" y="63.48" width="34.85" height="27.7"/>
      <rect class="cls-6" x="987.69" y="291.33" width="34.85" height="363.67"/>
      <rect class="cls-9" x="822.39" y="138.53" width="50.04" height="21.44"/>
      <rect class="cls-9" x="928.72" y="359.24" width="50.04" height="21.44"/>
      <rect class="cls-9" x="822.39" y="513.82" width="50.04" height="21.44"/>
      <rect class="cls-6" x="783.96" y="63.48" width="34.85" height="591.52"/>
    </g>
  </g>
</svg>