<svg xmlns="http://www.w3.org/2000/svg" viewBox="0 0 1038.1 647.62"><defs><style>.cls-1{fill:#f2f2f2;}.cls-2{fill:#b4b4b4;}.cls-3{fill:#a0616a;}.cls-4{fill:#ccc;}.cls-5{fill:#3f3d56;}.cls-6{fill:#fff;}.cls-7{fill:#e6e6e6;}.cls-8{fill:#3b8ff3;}.cls-9{fill:#231f20;}.cls-13,.cls-9{opacity:0.2;isolation:isolate;}.cls-10{fill:#2f2e41;}.cls-11{fill:#9e616a;}.cls-12{fill:#fd6584;}.cls-14{fill:#cacaca;}</style></defs><title>Asset 1</title><g id="Layer_2" data-name="Layer 2"><g id="Layer_1-2" data-name="Layer 1"><path class="cls-1" d="M956.37,142.64C838.55,17.87,589.65-32.74,344.87,21.77c-129.41,28.82-254.18,86.56-316,198.36C-81.68,420,150.4,483.82,302.16,504.16,375.54,514,444.66,530.52,507.81,553c113.62,40.47,314.75,76.34,466.41-92.26C1084.14,338.56,1034.85,225.74,956.37,142.64Z"/><path class="cls-2" d="M841.06,432.52a3.61,3.61,0,0,0,2.91-6.13l-.2-1,.11-.23a9.7,9.7,0,0,1,17.88.9c2.6,7.18,6,14.41,6.56,21.9a28.71,28.71,0,0,1-1,9.84A115.09,115.09,0,0,0,880,410.54a111.08,111.08,0,0,0-.11-12.41q-.33-5.08-1.11-10.11A116.42,116.42,0,0,0,858,337.65a31,31,0,0,1-12.25-14,23.63,23.63,0,0,1-1.85-6.55c.62.11,1.26.19,1.88.26l.59.06h.07a3.58,3.58,0,0,0,3.21-5.69l-.77-1-1.17-1.59-.13-.16-1.34-1.81a10.35,10.35,0,0,1,3.54-3.12c4.86-2.55,11.31-.33,14.53,4.11s3.6,10.48,2.16,15.78a41.48,41.48,0,0,1-6.33,12.51l.74,1a117.17,117.17,0,0,1,11.32,19.92,48.71,48.71,0,0,1,4-22.46c3.09-6.58,8.57-12,13.43-17.57,5.84-6.71,17-3.14,17.56,5.73l0,.26q-1,.53-2.06,1.13a4.9,4.9,0,0,0,1.56,9l.1,0a48.77,48.77,0,0,1-1.62,7.22A50.21,50.21,0,0,1,878.75,371l-1.22.55a119.6,119.6,0,0,1,5,30.56,113.44,113.44,0,0,1-.93,18.29l0-.21a30,30,0,0,1,11-16.81c8.17-6.1,19.39-8,28.12-12.76a5.63,5.63,0,0,1,8.35,5.87l0,.23a32.92,32.92,0,0,0-3.77,1.61q-1,.53-2.06,1.13a4.9,4.9,0,0,0,1.56,9l.1,0,.2,0a48.81,48.81,0,0,1-9.62,13.63,50.25,50.25,0,0,1-37.15,14.28h0a119.56,119.56,0,0,1-9.11,23l-28.66-1.33c-.09-.32-.17-.66-.24-1a32.6,32.6,0,0,0,8-.1l-6-8.15-.13-.16-3.06-4.15h0a47.75,47.75,0,0,1,2-12.09Z"/><path class="cls-2" d="M263.58,184.69a3.61,3.61,0,0,1-3.28-5.94l.14-1-.12-.22a9.7,9.7,0,0,0-17.79,2c-2.15,7.33-5.09,14.75-5.2,22.26a28.71,28.71,0,0,0,1.57,9.76,115.09,115.09,0,0,1-15.58-46.39,111.08,111.08,0,0,1-.65-12.39q0-5.09.49-10.16A116.42,116.42,0,0,1,240.78,91a31,31,0,0,0,11.36-14.68,23.63,23.63,0,0,0,1.44-6.65c-.61.15-1.24.27-1.86.38l-.59.1h-.07a3.58,3.58,0,0,1-3.55-5.48l.7-1.08L249.27,62l.12-.17,1.22-1.89A10.35,10.35,0,0,0,246.88,57c-5-2.25-11.31.37-14.25,5s-2.94,10.69-1.18,15.88A41.49,41.49,0,0,0,238.55,90l-.67,1.06a117.17,117.17,0,0,0-10.06,20.58,48.71,48.71,0,0,0-5.34-22.18C219,83.1,213.18,78,208,72.76c-6.24-6.34-17.16-2.09-17.17,6.81q0,.13,0,.26,1.08.46,2.12,1a4.9,4.9,0,0,1-1,9.08l-.1,0A48.77,48.77,0,0,0,193.91,97a50.21,50.21,0,0,0,28.26,28.58l1.25.47a119.6,119.6,0,0,0-3.12,30.81,113.43,113.43,0,0,0,2.06,18.2l-.05-.21a30,30,0,0,0-12-16.1c-8.53-5.58-19.85-6.74-28.85-11a5.63,5.63,0,0,0-8,6.37l.06.22a32.92,32.92,0,0,1,3.86,1.37q1.08.46,2.12,1a4.9,4.9,0,0,1-1,9.08l-.1,0-.2.05a48.81,48.81,0,0,0,10.45,13,50.25,50.25,0,0,0,38,12h0a119.56,119.56,0,0,0,10.52,22.44l28.52-3.1c.07-.33.12-.67.18-1a32.6,32.6,0,0,1-7.94.39l5.5-8.5.12-.17,2.8-4.33h0a47.75,47.75,0,0,0-2.71-11.94Z"/><path class="cls-3" d="M657.66,174.12a10,10,0,0,1,6.38,14l15.31,17-8.07,11.82L650,192.59a10.07,10.07,0,0,1,7.66-18.47Z"/><path class="cls-4" d="M801,215.9h0a20,20,0,0,0-27.55-6.58l-.06,0L723,240.54l-54.3-46.16L655.2,207l60,77.83,78-40.64C791.33,245.09,803.15,219.48,801,215.9Z"/><path class="cls-5" d="M701.23,319.57c0,104.53-84.7,189.29-189.23,189.31h-.08c-104.55,0-189.31-84.76-189.31-189.31a189.33,189.33,0,0,1,356.25-89.32,186.77,186.77,0,0,1,10.46,23.11c.41,1.1.81,2.21,1.2,3.32h0q2.6,7.35,4.59,15A189.32,189.32,0,0,1,701.23,319.57Z"/><path class="cls-6" d="M491.21,191.85a63.52,63.52,0,0,0-55.76-2.28c-7.8,3.39-16,9.48-18.61,20.47,10.52-6.21,24.14,3.6,26.84,19.34l-.63.17c-1.43,10.9,1.76,22.76,7.94,29.52.81-7,5.43-11.8,10-14.78s9.56-5.15,13-10.28c4.11-6.08,5.15-15,6.78-23.08S485.5,194.11,491.21,191.85Z"/><path class="cls-6" d="M432.33,284.59c-2.91,4.38-6.8,7.12-10.3,10.54s-6.79,8.06-7.49,14c-.44,3.81.24,7.68.15,11.53s-1.38,8.18-4,9.14c-4.13,1.49-7.29-6.18-11.54-6.72-3.38-.42-6.42,4.89-5.44,9.5s5.57,6.65,8.21,3.64c2.39,4,.7,11.27-2.88,12.5-.38,2.52-.76,5-1.13,7.56-9.07-6.34-18.23-12.79-25.94-22.08a67,67,0,0,1-15.27-36.09c-1-10.67.48-22.89-4.42-31.1-3.92-6.57-10.65-8-16.71-7.61-1.1.07-2.22.2-3.32.34a187.24,187.24,0,0,1,13.56-31,13.28,13.28,0,0,0,3.4-2.11c5.64-4.79,8.14-14.47,12.72-21.17q.44-.65.92-1.26c4.68-6.11,10.95-9.26,17-12.18,13.41-6.51,27.21-13.1,41.36-12.2l-4,.39-14.11,39.5q-1.07,3-2.17,6.07c-2.67,7.49-5.43,15.46-5,23.84.24,5,2,10.26,5.25,12,3.06,1.58,6.4-.36,9.36-2.27l3.74-2.41c4.49-2.89,9.47-5.86,14.21-3.92,4.34,1.77,7.55,7.67,8.16,14A28,28,0,0,1,432.33,284.59Z"/><path class="cls-6" d="M459,374.49l-39.35-24.23.22-.57c-8.15,3.11-11.54,17.6-10.19,29.46s5.92,22.45,8.23,34a90.25,90.25,0,0,1-3.4,47.36,387.85,387.85,0,0,0,45.56-62.78,33.59,33.59,0,0,0,4.12-9.14c.83-3.44.71-7.58-1-10.34A11.51,11.51,0,0,0,459,374.49Z"/><path class="cls-6" d="M407.28,227.57c-1.39,3.13-1.93,7.31-.66,10.55s4,4.8,6.53,6l7.25,3.59c2.41,1.2,5,2.4,7.47,1.42,3-1.19,5-5.83,4.49-10.15-.57-4.59-3.46-7.75-6.14-10.44L415,217.3l-2.11,2.59A28.19,28.19,0,0,0,407.28,227.57Z"/><path class="cls-6" d="M662.38,276.65l9.78,2.3c-.57,11-6,21.2-13.35,24.89-3,1.54-6.45,2.1-9,5-2.28,2.61-3.44,6.67-4.5,10.55l-5.58,20.32c-2,7.3-4.56,15.41-9.76,18-4.46,2.26-9.56-.5-13-5.14s-5.52-10.87-7.55-17c.13,6.63-3,13.13-7.32,15.43s-9.7.22-12.62-4.92c-2.1-3.69-3-8.56-5-12.31s-6.38-5.89-8.63-2.38c-1.48,2.33-1.29,5.91-2,8.88-1.15,4.61-4.62,7.5-8.06,7.75s-6.77-1.72-9.64-4.41c-5.92-5.55-10.29-14.37-12-24.16-.75-4.36-1-9.12.34-13.21s4.42-7.25,7.52-6.47c2-4.31-2-10-5.62-9.53s-6.49,4.41-9.48,7.4-7.14,5.17-10.14,2.2c0,2.77-2.23,4.6-4.18,4.36s-3.66-1.78-5.44-2.88c-6.87-4.28-15.59-1.44-20.47,6.66,3-13,7.52-27.87,16.89-30.92,3.83-1.25,8-.22,11.62-2.39,6.41-3.84,7.7-18.34,2.17-24.33.7,5.66.57,12.26-2.42,16.13s-9.26,1.35-8.88-4.38c-.86,3.94-5.15,4.54-7.13,1.51s-1.82-8-.41-11.6,3.81-6.22,6.13-8.71c5-5.35,10.06-10.77,15.85-14.14s12.48-4.5,18.29-1.16c3.06,1.77,5.75,4.71,8.88,6.27s7.09,1.37,9.16-2.29c2.32-4.08,1.23-10.14,2.09-15.24,1.55-9,10.56-13.23,15.55-7.28-3.73-1-7.59,3.46-8.06,8.81s2.23,10.76,5.85,12.38c6.08,2.69,12-4.08,16.63-10.35q7.19-9.84,14.41-19.68a23.78,23.78,0,0,1,2.58-3.13,8.29,8.29,0,0,1,11.33-.23c4.86,4,7.14,12.09,11.13,17.69,5.78,8.13,14.44,10.11,22.5,11.68l18,3.52a186.77,186.77,0,0,1,10.46,23.11C679.15,257.68,669.75,265.76,662.38,276.65Z"/><path class="cls-6" d="M681.8,403.19a188.54,188.54,0,0,1-15.67,26.22c-3.79-1.62-7.86,1.27-11.4,4-3.7,2.84-8.15,5.61-11.95,3s-5.13-10.06-3.9-15.94,4.3-10.54,7.28-15c3.16-4.71,6.53-9.6,10.92-11.43s10,.76,11.33,7l3.11-.11c-1.75-2.4-.83-7.36,1.51-8.23,2.7-1,5,2.69,6.65,6C680.39,400.18,681.11,401.68,681.8,403.19Z"/><path class="cls-6" d="M562.57,358.77c-6.69.42-12-7.82-15.51-15.92s-6.74-17.37-12.77-21.5c-3.45-2.36-7.38-2.68-11.12-3.82s-7.66-3.51-9.45-8.32l-4.24-1.71c-5.61,3.15-11.29,6.36-16.12,11.49a36,36,0,0,0-9.6,21c-.81,8.5,2.18,18,7.78,21.16,4.42,2.52,9.57.93,14,3.24,5.59,2.88,8.92,11.26,10.17,19.54s.94,16.87,1.84,25.24,3.38,17.07,8.51,21.36c6.42,5.37,15.84.91,18.72-8.86,1.41-4.79,1.36-10.2,2.42-15.17,1.86-8.76,6.88-15.26,10.87-22.44S565.22,367.11,562.57,358.77Z"/><path class="cls-6" d="M496.45,272.71a17.86,17.86,0,0,1,1.74,1.85,6.08,6.08,0,0,1-.11,6.28,5.84,5.84,0,0,0,4.18-2.13,26.88,26.88,0,0,0,3.21-4.52c.68-1.11,1.41-2.62.95-3.94-.32-.9-1.06-1.29-1.59-2-.83-1.08-1-2.78-1.47-4.26-.93-3.19-3.15-5.53-5.57-5.87l.34.06c-1,.35-1.71,1.95-1.49,3.39s1,2.4,1,3.74c-.12,1.92-2,2.83-2.16,4.75A3.67,3.67,0,0,0,496.45,272.71Z"/><path class="cls-7" d="M485,240h0a5.36,5.36,0,0,0,.57-.61Z"/><path class="cls-6" d="M487,249c1.48-1,2.31-3.58,1.82-5.78S486.6,239.59,485,240a3.87,3.87,0,0,1-3.59,1.06c-1-.25-2.06-.9-2.91-.16a4.4,4.4,0,0,0-1,1.93l-.94,2.9a1.83,1.83,0,0,0-.11,1.1.93.93,0,0,0,.71.57l5.67,1.67C484.22,249.46,485.71,249.86,487,249Z"/><path class="cls-6" d="M629.65,373.76,627,369.47a14.33,14.33,0,0,0-3.45-4.34,3.06,3.06,0,0,0-4.31.38l0,.06.11.82c2,2.5,4.1,5.27,4.6,9,.2,1.46.13,3,.3,4.44s.67,3,1.62,3.62c1.38.92,3-.44,4-2.09a7.19,7.19,0,0,0,1.11-4.58A8,8,0,0,0,629.65,373.76Z"/><path class="cls-7" d="M668.52,319.15l.76-5a14.33,14.33,0,0,0,.15-5.54,3.06,3.06,0,0,0-3.54-2.48h-.07l-.44.69c-.09,3.19-.26,6.67-2.26,9.83-.79,1.25-1.82,2.36-2.63,3.59s-1.41,2.72-1.09,3.81c.46,1.59,2.57,1.59,4.38,1a7.19,7.19,0,0,0,3.8-2.79A8,8,0,0,0,668.52,319.15Z"/><path class="cls-6" d="M643.35,375.62c.43-1.23-.19-2.64-.32-4a8.76,8.76,0,0,1,1.33-5,16.15,16.15,0,0,0,2.08-4.56,3.81,3.81,0,0,0-.1-2.23c-.29-.65-1-.95-1.39-.43l.86.55a7.83,7.83,0,0,0-3.49.17,4.32,4.32,0,0,0-2.64,3,18.44,18.44,0,0,1-.69,3.09c-.51,1.05-1.51,1.4-2.13,2.33a5.57,5.57,0,0,0,.09,5.29,6.18,6.18,0,0,0,3.49,2.75C641.49,377,642.87,377,643.35,375.62Z"/><path class="cls-6" d="M667.75,383a12,12,0,0,0,1.51,2.78c1.17,1.18,2.76.45,4.17.17a7.22,7.22,0,0,1,6.86,2.75,17.47,17.47,0,0,0-10-12.54c-3.34-1.36-6.86-1.49-10.33-1.62l-.6.15C660.85,379.14,665.65,379,667.75,383Z"/><path class="cls-7" d="M564.4,392.09v0l.17-.34Z"/><path class="cls-6" d="M560.7,399.26a32.89,32.89,0,0,0-2.08,4.56,39.71,39.71,0,0,0-1.51,7.81c-.19,1.5-.25,3.43.7,4.16a1.34,1.34,0,0,0,1.75-.24,6.92,6.92,0,0,0,1.27-1.88,43.42,43.42,0,0,0,4.28-10.16c.9-3.74.89-8.15-.7-11.39Z"/><path class="cls-7" d="M525,208.36a4.21,4.21,0,0,0,4.54.89,15,15,0,0,0,4.27-2.82,10.05,10.05,0,0,0,2.59-2.83,5.73,5.73,0,0,0,.53-4.37c-.59-1.71-2.07-2.29-3.38-2.67l-6.29-1.87,1.52-1.37c-1.56-.84-3.29.72-4.26,2.64a14.22,14.22,0,0,0-1.29,4C522.68,203,523.2,206.56,525,208.36Z"/><path class="cls-7" d="M562,195.92a3.46,3.46,0,0,0,4.72.38,5.28,5.28,0,0,0,2.09-3.76c.15-1.65-.67-3.48-1.83-3.63l.27-1.54c-2.24-.41-5-.49-6.21,2.24A6.4,6.4,0,0,0,562,195.92Z"/><path class="cls-8" d="M557.07,113.78a49.93,49.93,0,0,0-55.21,44c-3.09,27.4,11.34,86.9,37.66,111.53,12.39-47.19,55.81-75.18,61.56-100.34C607.22,142.11,584.47,116.87,557.07,113.78Z"/><circle id="a2705e7e-530b-43fb-b0c6-4087ca2c8018" class="cls-6" cx="547.97" cy="158.41" r="16.28"/><circle id="bb575e01-1284-49d3-8651-037e5b7ffa75" class="cls-8" cx="530.85" cy="282.14" r="10.66"/><path class="cls-9" d="M561.44,146.74a16.28,16.28,0,0,1-16.77,27.91h0a16.28,16.28,0,0,0,11.91-29.85A16.28,16.28,0,0,1,561.44,146.74Z"/><path class="cls-9" d="M601.15,169C595.4,194.2,552,222.19,539.59,269.38a69.06,69.06,0,0,1-6.88-7.53c13.92-44.36,54.64-71.31,60.2-95.61,5-21.75-9-42.43-29-51.16C588.13,121.16,606.77,144.41,601.15,169Z"/><path class="cls-8" d="M404.48,177.31A37.49,37.49,0,0,0,363,210.37c-2.32,20.58,8.52,65.26,28.28,83.75,9.31-35.44,41.91-56.46,46.23-75.35C442.15,198.58,425.06,179.63,404.48,177.31Z"/><circle id="b2d5ab8a-e71c-4a1a-aadf-98f8ab95825b" class="cls-6" cx="397.65" cy="210.83" r="12.23"/><circle id="bac33ac8-32b5-423c-9bc5-6c03ceb8d8dc" class="cls-8" cx="384.79" cy="303.74" r="8.01"/><path class="cls-9" d="M407.77,202.07a12.23,12.23,0,0,1-12.6,21,12.23,12.23,0,0,0,8.94-22.42A12.23,12.23,0,0,1,407.77,202.07Z"/><path class="cls-9" d="M437.59,218.81c-4.31,18.89-36.92,39.91-46.23,75.35a51.86,51.86,0,0,1-5.16-5.66c10.46-33.31,41-53.55,45.21-71.8,3.73-16.34-6.75-31.86-21.79-38.42C427.81,182.85,441.81,200.31,437.59,218.81Z"/><polygon class="cls-3" points="787.3 620.26 773.88 620.26 767.49 568.48 787.3 568.48 787.3 620.26"/><path class="cls-10" d="M794.52,645.75H785l-1.7-9-4.35,9H753.68a5.68,5.68,0,0,1-3.23-10.35l20.18-13.93v-9.09l21.22,1.27Z"/><polygon class="cls-3" points="735.3 620.26 721.88 620.26 715.49 568.48 735.3 568.48 735.3 620.26"/><path class="cls-10" d="M742.52,645.75H733l-1.7-9-4.35,9H701.68a5.68,5.68,0,0,1-3.23-10.35l20.18-13.93v-9.09l21.22,1.27Z"/><path class="cls-10" d="M684.3,483.54c2.57,3.85,30.52,109.79,30.52,109.79l24.78,2.83-2.94-26.66-4.5-47.17-7-31.49s24.59-56,26.14-60.41l1.1-3.2L760.13,497a19.58,19.58,0,0,1,1.17,7.78c-.23,4.35,4.14,69.87,4.14,69.87l2.1,23.5L788.77,601l8.61-40.65c7.19-13.21,3.07-60.13.13-64.5s-1.77-34.79-1.77-34.79c3.76-1.32,26.16-77.71,15-77.26.72-4.07,1.28-7.71,1.28-7.71l-19.45-15.68-48.67-12.65-12.28-5.9s-21.93,40.55-21.71,42.57a11.21,11.21,0,0,1-1.66,7.31L686.06,465.9S681.7,479.65,684.3,483.54Z"/><path class="cls-4" d="M806.58,218.35l-7.74-16.44-26.35,1-8.6,17.1s-24.57,29.34-25.36,38.88c-1,12,7.31,70.81-1,67,0,0-19.59,23-8,23s64,32.92,67.48,36.63,18.8,6.1,17.52-1.63-7.94-49.53-7.94-49.53l18-65.73c5.19-14.19,6.8-30.11-4.92-39.64Z"/><path class="cls-8" d="M709,170a28.88,28.88,0,0,0-37.5,16.19h0c-5.88,14.83-6.86,50.23,4.09,68,14.08-24.46,42.57-33.49,49.59-46.66C732.66,193.39,723.79,175.85,709,170Z"/><circle id="f50692ea-d13f-4759-b5e2-05248e17533e" class="cls-6" cx="697.11" cy="193.5" r="9.42"/><circle id="aec6a1c4-a00c-42b6-a49d-0158b63ca54a" class="cls-8" cx="668.77" cy="259.96" r="6.17"/><path class="cls-9" d="M706.4,189a9.42,9.42,0,0,1-13.6,13A9.42,9.42,0,0,0,704,187.21,9.42,9.42,0,0,1,706.4,189Z"/><path class="cls-9" d="M725.18,207.5c-7,13.17-35.51,22.2-49.59,46.66a40,40,0,0,1-2.7-5.25c14.51-22.65,41.33-31.51,48.12-44.23,6.08-11.39,1.42-25-8.43-33C725.18,178.8,732.06,194.61,725.18,207.5Z"/><path class="cls-3" d="M666,257.84a10,10,0,0,1,12,9.54l21.37,8.2-1.82,14.2-30-12A10.07,10.07,0,0,1,666,257.84Z"/><path class="cls-4" d="M815.29,228.57h0a20,20,0,0,0-27.53,6.66l0,.06-30.67,50.65L687.71,269.5l-6.32,17.34,88.81,42.07,45-71.64C821.91,247.81,825.21,234.62,815.29,228.57Z"/><path class="cls-10" d="M816.44,166.5a29.82,29.82,0,1,1-51.3-20.69l.14-.14c.24-.25.48-.5.73-.74h0c.31-.29.62-.57.94-.85a29.82,29.82,0,0,1,49.47,22.43Z"/><circle class="cls-11" cx="779.27" cy="173.4" r="25.01"/><path class="cls-10" d="M805.82,180.53l-4.14-.73a11.55,11.55,0,0,1-9.3-9.32l-4,6.78-.18.06c-9.63,3.2-19.66,2.24-30.63-2.92a85.46,85.46,0,0,1-9.12-5l-.22-.14,0-.25c-.56-8.14,1.27-14.93,5.14-19.14A15.42,15.42,0,0,1,764.94,145a1,1,0,0,0,.41-.23l.17-.12v0l.29-.14c.62-.29,1.25-.57,1.88-.82a28.2,28.2,0,0,1,29.45,5.71c7.7,7.35,11.24,19.7,8.79,30.71Z"/><path class="cls-10" d="M858.57,201.84c-8.51-4.39,2.43-20.33.24-29.66s-18-12.32-19-21.84-3.38-19.35-9.67-26.57c-4-4.62-9.93-8-16-7.45a14.41,14.41,0,0,0-12.63,17.79c-1.73-2.46-6.22-1.93-7.33.87-1,2.49,1.19,5.5,3.76,5.72,3.36,4.15,7.21,8.55,12.47,9.39a5.68,5.68,0,0,0,4.84-1.12c1.24-1.19,1.33-3.57-.13-4.46,6.62,2.63,10.5,9.78,11.48,16.83s-.38,14.19-1.27,21.25-1.28,14.49,1.49,21.05c3.27,7.75,10.8,13.3,19,15.08s17,0,24.42-3.88,13.65-9.91,18.72-16.62C880.17,204.43,868.09,206.75,858.57,201.84Z"/><path class="cls-12" d="M804.76,179.84s-7.41-27.65-39.16-34l-.31-.13-.33-.18c.36-.2.7-.38,1.06-.56h0c.31-.29.62-.57.94-.85l.91,0S799.74,139.06,804.76,179.84Z"/><polygon class="cls-13" points="788.17 268.56 770.24 289.34 740.6 280.59 772.91 295.48 788.17 268.56"/><path class="cls-14" d="M895.83,647.32l-275.75.31a1.19,1.19,0,0,1,0-2.38l275.75-.31a1.19,1.19,0,0,1,0,2.38Z"/><path class="cls-8" d="M907.93,462.28q-19.37,0-42.46-1.46c-79.61-5.06-182.74-22.63-290.38-49.49s-206.93-59.79-279.59-92.73c-35.39-16-62.56-31.24-80.74-45.15-19.25-14.73-27.67-27.56-25-38.15,5.15-20.63,50.73-25.14,88.06-25.3v3c-51.27.21-81.51,8.39-85.17,23-4.65,18.64,33.29,47.74,104.09,79.84,72.5,32.87,171.61,65.74,279.07,92.56s210.4,44.36,289.84,49.41c77.58,4.93,124.74-2.94,129.39-21.58,3.86-15.48-21.6-38.28-71.69-64.2l1.38-2.66c36.4,18.84,78.65,45.85,73.22,67.59-2.64,10.59-16.11,18-40,21.92C944.32,461.15,927.58,462.28,907.93,462.28Z"/></g></g></svg>